<svg xmlns="http://www.w3.org/2000/svg" xmlns:xlink="http://www.w3.org/1999/xlink" xml:space="preserve" version="1.1" style="shape-rendering:geometricPrecision;text-rendering:geometricPrecision;image-rendering:optimizeQuality;" viewBox="0 0 333.33 416.66249999999997" x="0px" y="0px" fill-rule="evenodd" clip-rule="evenodd"><defs><style type="text/css">
   
    .fil0 {fill:white; fill-rule:nonzero}
   
  </style></defs><g><path class="fil0" d="M166.67 94.89c24.86,0 48.2,6.65 68.32,18.27 20.81,12.02 38.18,29.37 50.22,50.18 1.24,2.15 1.15,4.72 -0.03,6.72 -12.03,20.77 -29.39,38.09 -50.22,50.11 -20.12,11.61 -43.45,18.27 -68.29,18.27 -24.84,0 -48.17,-6.65 -68.3,-18.26 -20.84,-12.02 -38.21,-29.37 -50.25,-50.17 -1.24,-2.15 -1.15,-4.72 0.03,-6.72 12.04,-20.78 29.4,-38.12 50.19,-50.13l0.41 -0.22c20.04,-11.48 43.23,-18.05 67.92,-18.05zm-42 -87.26c3.68,0 6.67,2.98 6.67,6.67 0,3.68 -2.98,6.67 -6.67,6.67l-60.93 0c-11.77,0 -22.47,4.81 -30.22,12.56 -7.74,7.76 -12.56,18.46 -12.56,30.22l0 60.93c0,3.68 -2.98,6.67 -6.67,6.67 -3.68,0 -6.67,-2.98 -6.67,-6.67l0 -60.93c0,-15.44 6.31,-29.48 16.48,-39.64 10.19,-10.16 24.22,-16.48 39.64,-16.48l60.93 0zm-117.05 201.03c0,-3.68 2.98,-6.67 6.67,-6.67 3.68,0 6.67,2.98 6.67,6.67l0 60.93c0,11.77 4.81,22.47 12.56,30.22 7.75,7.74 18.46,12.56 30.22,12.56l60.93 0c3.68,0 6.67,2.98 6.67,6.67 0,3.68 -2.98,6.67 -6.67,6.67l-60.93 0c-15.42,0 -29.44,-6.31 -39.61,-16.48 -10.19,-10.19 -16.5,-24.22 -16.5,-39.64l0 -60.93zm201.03 117.05c-3.68,0 -6.67,-2.98 -6.67,-6.67 0,-3.68 2.98,-6.67 6.67,-6.67l60.93 0c11.76,0 22.46,-4.82 30.21,-12.57l0.34 -0.32c7.55,-7.72 12.23,-18.29 12.23,-29.89l0 -60.93c0,-3.68 2.98,-6.67 6.67,-6.67 3.68,0 6.67,2.98 6.67,6.67l0 60.93c0,15.23 -6.16,29.1 -16.1,39.23l-0.37 0.41c-10.16,10.16 -24.2,16.48 -39.64,16.48l-60.93 0zm117.05 -201.03c0,3.68 -2.98,6.67 -6.67,6.67 -3.68,0 -6.67,-2.98 -6.67,-6.67l0 -60.93c0,-11.76 -4.82,-22.46 -12.57,-30.21 -7.75,-7.75 -18.45,-12.57 -30.21,-12.57l-60.93 0c-3.68,0 -6.67,-2.98 -6.67,-6.67 0,-3.68 2.98,-6.67 6.67,-6.67l60.93 0c15.44,0 29.48,6.31 39.64,16.48 10.16,10.16 16.48,24.2 16.48,39.64l0 60.93zm-159.04 12.94c7.99,0 15.25,3.25 20.52,8.51l0.04 0.04c5.25,5.27 8.5,12.51 8.5,20.5 0,7.99 -3.26,15.26 -8.53,20.53 -5.24,5.27 -12.5,8.53 -20.53,8.53 -8.02,0 -15.29,-3.26 -20.54,-8.51 -5.26,-5.26 -8.51,-12.52 -8.51,-20.54 0,-8.02 3.26,-15.29 8.51,-20.54l0.43 -0.4c5.23,-5.02 12.33,-8.11 20.11,-8.11zm11.13 17.92c-2.84,-2.84 -6.77,-4.59 -11.13,-4.59 -4.21,0 -8.02,1.63 -10.83,4.3l-0.29 0.31c-2.84,2.84 -4.61,6.78 -4.61,11.12 0,4.34 1.77,8.28 4.61,11.12 2.84,2.84 6.78,4.61 11.12,4.61 4.34,0 8.28,-1.77 11.12,-4.61 2.85,-2.83 4.61,-6.76 4.61,-11.12 0,-4.36 -1.75,-8.29 -4.59,-11.13zm50.53 -30.86c-18.12,-10.46 -39.18,-16.45 -61.65,-16.45 -22.35,0 -43.28,5.91 -61.33,16.24l-0.33 0.2c-17.69,10.21 -32.61,24.69 -43.38,42 10.76,17.31 25.69,31.78 43.38,41.99 18.11,10.46 39.17,16.44 61.66,16.44 22.5,0 43.56,-5.99 61.68,-16.45 17.66,-10.19 32.58,-24.66 43.35,-41.99 -10.76,-17.32 -25.69,-31.79 -43.37,-42z"/></g><!--<text x="0" y="348.33" fill="#000000" font-size="5px" font-weight="bold" font-family="'Helvetica Neue', Helvetica, Arial-Unicode, Arial, Sans-serif">Created by Mashudi</text><text x="0" y="353.33" fill="#000000" font-size="5px" font-weight="bold" font-family="'Helvetica Neue', Helvetica, Arial-Unicode, Arial, Sans-serif">from the Noun Project</text>--></svg>