<svg xmlns="http://www.w3.org/2000/svg" version="1.1" viewBox="-10.0 -20.0 220.0 270.0" width="2000" height="2000">
  <path fill="white" d="m90.074 46.723c-10.656-8.3828-25.637-13.391-40.074-13.391-14.434 0-29.418 5.0078-40.074 13.391-1.8086 1.4258-2.1211 4.043-0.69922 5.8516 1.4297 1.8164 4.0508 2.125 5.8516 0.69922 5.4531-4.2891 12.246-7.5234 19.484-9.4844-0.77734 1.9219-1.2266 4.0117-1.2266 6.207 0 9.1914 7.4766 16.668 16.668 16.668s16.668-7.4766 16.668-16.668c0-2.1953-0.44922-4.2852-1.2266-6.207 7.2383 1.9609 14.031 5.1953 19.484 9.4844 0.76562 0.60156 1.6719 0.89062 2.5703 0.89062 1.2383 0 2.457-0.54687 3.2812-1.5898 1.4141-1.8086 1.1055-4.4258-0.70703-5.8516zm-31.742 3.2773c0 4.5938-3.7383 8.332-8.332 8.332-4.5977 0-8.332-3.7383-8.332-8.332 0-4.5977 3.7383-8.332 8.332-8.332s8.332 3.7344 8.332 8.332z"/>
</svg>